<svg xmlns="http://www.w3.org/2000/svg" xmlns:xlink="http://www.w3.org/1999/xlink" version="1.1" x="0px" y="0px" viewBox="0 0 100 100" enable-background="new 0 0 100 100" xml:space="preserve"><path d="M79.67,5H21.33C12.602,5,5.5,12.102,5.5,20.83v58.34C5.5,87.898,12.602,95,21.33,95h58.34c8.729,0,15.83-7.102,15.83-15.83  V20.83C95.5,12.102,88.398,5,79.67,5z M69.77,14.248c0-1.497,1.225-2.722,2.722-2.722h10.372c1.496,0,2.721,1.225,2.721,2.722  v10.371c0,1.497-1.225,2.722-2.721,2.722H72.491c-1.497,0-2.722-1.225-2.722-2.722V14.248z M66.851,49.18  c0,8.948-7.28,16.229-16.228,16.229c-8.949,0-16.229-7.28-16.229-16.229c0-8.949,7.28-16.228,16.229-16.228  C59.57,32.952,66.851,40.231,66.851,49.18z M85.717,79.17c0,3.335-2.712,6.047-6.047,6.047H21.33c-3.334,0-6.047-2.712-6.047-6.047  V37.527h12.096c-1.767,3.508-2.767,7.465-2.767,11.653c0,14.343,11.668,26.011,26.011,26.011c14.342,0,26.011-11.668,26.011-26.011  c0-6.279-2.237-12.045-5.954-16.543h15.037V79.17z"></path></svg>