<svg xmlns="http://www.w3.org/2000/svg" xmlns:xlink="http://www.w3.org/1999/xlink" version="1.1" x="0px" y="0px" viewBox="0 0 100 100" enable-background="new 0 0 100 100" xml:space="preserve"><g><circle cx="21.243" cy="80.884" r="11.131"></circle><path d="M18.229,40.126c-4.212,0-7.627,3.414-7.627,7.626c0,4.213,3.415,7.627,7.627,7.627c15.917,0,28.865,12.95,28.865,28.865   c0,4.213,3.414,7.627,7.628,7.627c4.212,0,7.627-3.414,7.627-7.627C62.349,59.918,42.556,40.126,18.229,40.126z"></path><path d="M17.997,9.668c-4.211,0-7.627,3.415-7.627,7.627c0,4.212,3.414,7.627,7.627,7.627c32.708,0.001,59.32,26.613,59.32,59.322   c0,4.213,3.415,7.627,7.628,7.627c4.211,0,7.626-3.414,7.626-7.627C92.571,43.126,59.118,9.671,17.997,9.668z"></path></g></svg>