<?xml version="1.0" encoding="iso-8859-1"?>
<!-- Generator: Adobe Illustrator 18.1.1, SVG Export Plug-In . SVG Version: 6.00 Build 0)  -->
<svg version="1.1" id="Capa_1" xmlns="http://www.w3.org/2000/svg" xmlns:xlink="http://www.w3.org/1999/xlink" x="0px" y="0px"
	 viewBox="0 0 100 100" style="enable-background:new 0 0 100 100;" xml:space="preserve">
<g>
	<path style="fill:#030104;" d="M55.256,40.296l6.822,3.297l10.294-3.297v-5.969C72.372,22.016,62.336,12,50,12
		S27.628,22.016,27.628,34.327v31.346c0,2.892-2.358,5.244-5.256,5.244s-5.255-2.353-5.255-5.244V52.548H0v13.125
		C0,77.984,10.036,88,22.372,88c12.337,0,22.372-10.016,22.372-22.327V34.327c0-2.892,2.358-5.244,5.256-5.244
		s5.256,2.353,5.256,5.244V40.296z M82.883,52.548v13.125c0,2.892-2.357,5.244-5.255,5.244s-5.256-2.353-5.256-5.244V52.284
		l-10.294,3.297l-6.822-3.297v13.389C55.256,77.984,65.291,88,77.628,88C89.963,88,100,77.984,100,65.673V52.548H82.883z"/>
</g>
<g>
</g>
<g>
</g>
<g>
</g>
<g>
</g>
<g>
</g>
<g>
</g>
<g>
</g>
<g>
</g>
<g>
</g>
<g>
</g>
<g>
</g>
<g>
</g>
<g>
</g>
<g>
</g>
<g>
</g>
</svg>
